<?xml version="1.0" encoding="UTF-8" standalone="no"?>
<svg
   xmlns:dc="http://purl.org/dc/elements/1.1/"
   xmlns:cc="http://creativecommons.org/ns#"
   xmlns:rdf="http://www.w3.org/1999/02/22-rdf-syntax-ns#"
   xmlns:svg="http://www.w3.org/2000/svg"
   xmlns="http://www.w3.org/2000/svg"
   xmlns:sodipodi="http://sodipodi.sourceforge.net/DTD/sodipodi-0.dtd"
   xmlns:inkscape="http://www.inkscape.org/namespaces/inkscape"
   class="bi bi-plus-circle"
   width="1em"
   height="1em"
   viewBox="0 0 16 16"
   color="#17a2b8"
   version="1.1"
   id="svg30"
   sodipodi:docname="tested.svg"
   inkscape:version="0.92.4 (5da689c313, 2019-01-14)">
  <metadata
     id="metadata36">
    <rdf:RDF>
      <cc:Work
         rdf:about="">
        <dc:format>image/svg+xml</dc:format>
        <dc:type
           rdf:resource="http://purl.org/dc/dcmitype/StillImage" />
      </cc:Work>
    </rdf:RDF>
  </metadata>
  <defs
     id="defs34" />
  <sodipodi:namedview
     pagecolor="#ffffff"
     bordercolor="#666666"
     borderopacity="1"
     objecttolerance="10"
     gridtolerance="10"
     guidetolerance="10"
     inkscape:pageopacity="0"
     inkscape:pageshadow="2"
     inkscape:window-width="1858"
     inkscape:window-height="1057"
     id="namedview32"
     showgrid="false"
     inkscape:zoom="56.5625"
     inkscape:cx="8"
     inkscape:cy="8"
     inkscape:window-x="54"
     inkscape:window-y="-8"
     inkscape:window-maximized="1"
     inkscape:current-layer="svg30" />
  <path
     d="M 8,3.5 A 0.5,0.5 0 0 1 8.5,4 V 8 A 0.5,0.5 0 0 1 8,8.5 H 4 a 0.5,0.5 0 0 1 0,-1 H 7.5 V 4 A 0.5,0.5 0 0 1 8,3.5 Z"
     id="path24"
     inkscape:connector-curvature="0"
     style="clip-rule:evenodd;fill:currentColor;fill-rule:evenodd" />
  <path
     fill="currentColor"
     fill-rule="evenodd"
     d="M7.5 8a.5.5 0 01.5-.5h4a.5.5 0 010 1H8.5V12a.5.5 0 01-1 0V8z"
     clip-rule="evenodd"
     id="path26" />
  <path
     fill="currentColor"
     fill-rule="evenodd"
     d="M8 15A7 7 0 108 1a7 7 0 000 14zm0 1A8 8 0 108 0a8 8 0 000 16z"
     clip-rule="evenodd"
     id="path28" />
</svg>
