<?xml version="1.0" encoding="UTF-8" standalone="no"?>
<svg
   xmlns:dc="http://purl.org/dc/elements/1.1/"
   xmlns:cc="http://creativecommons.org/ns#"
   xmlns:rdf="http://www.w3.org/1999/02/22-rdf-syntax-ns#"
   xmlns:svg="http://www.w3.org/2000/svg"
   xmlns="http://www.w3.org/2000/svg"
   xmlns:sodipodi="http://sodipodi.sourceforge.net/DTD/sodipodi-0.dtd"
   xmlns:inkscape="http://www.inkscape.org/namespaces/inkscape"
   width="1em"
   height="1em"
   viewBox="0 0 16 16"
   color="#ffc107"
   version="1.1"
   id="svg3885"
   sodipodi:docname="texture.svg"
   inkscape:version="0.92.4 (5da689c313, 2019-01-14)">
  <metadata
     id="metadata3891">
    <rdf:RDF>
      <cc:Work
         rdf:about="">
        <dc:format>image/svg+xml</dc:format>
        <dc:type
           rdf:resource="http://purl.org/dc/dcmitype/StillImage" />
      </cc:Work>
    </rdf:RDF>
  </metadata>
  <defs
     id="defs3889" />
  <sodipodi:namedview
     pagecolor="#ffffff"
     bordercolor="#666666"
     borderopacity="1"
     objecttolerance="10"
     gridtolerance="10"
     guidetolerance="10"
     inkscape:pageopacity="0"
     inkscape:pageshadow="2"
     inkscape:window-width="927"
     inkscape:window-height="508"
     id="namedview3887"
     showgrid="false"
     inkscape:zoom="14.75"
     inkscape:cx="8"
     inkscape:cy="8"
     inkscape:window-x="984"
     inkscape:window-y="0"
     inkscape:window-maximized="0"
     inkscape:current-layer="svg3885" />
  <path
     d="M 8,1 V 15 A 7,7 0 0 0 8,1 Z M 8,0 A 8,8 0 1 0 8,16 8,8 0 0 0 8,0 Z"
     id="path3883"
     style="clip-rule:evenodd;fill:#28a745;fill-opacity:1;fill-rule:evenodd"
     inkscape:connector-curvature="0" />
  <path
     inkscape:connector-curvature="0"
     style="clip-rule:evenodd;fill:currentColor;fill-rule:evenodd"
     d="M 8,15 A 7,7 0 1 0 8,1.0000003 7,7 0 0 0 8,15 Z m 0,1 A 8,8 0 1 0 8,3e-7 8,8 0 0 0 8,16 Z"
     id="path3863" />
</svg>
